<svg xmlns="http://www.w3.org/2000/svg" width="501" height="500" viewBox="0 0 501 500" version="1.1"><path d="M 273.310 256.250 C 269.768 260.159, 259.786 275.753, 246.060 298.817 C 229.279 327.016, 227.343 329.613, 223.443 329.153 C 218.486 328.568, 217.706 327.253, 218.255 320.410 C 218.582 316.341, 219.998 311.430, 222.445 305.881 C 230.001 288.750, 231.165 283.220, 228.551 276.873 C 227.998 275.530, 228.811 275.129, 233.199 274.581 C 240.612 273.655, 241.421 272.981, 240.670 268.353 C 239.809 263.046, 237.912 262, 229.156 262 C 208.904 262, 127.331 269.731, 122.500 272.109 C 119.708 273.483, 119.157 273.409, 114.536 271.042 C 97.924 262.534, 58.722 276.364, 50.875 293.500 C 48.428 298.846, 48.531 300.666, 51.638 306.901 C 54.944 313.535, 63.421 320.445, 81.687 331.395 C 88.930 335.737, 96.512 340.897, 98.535 342.862 C 101.948 346.177, 102.180 346.773, 101.761 351.139 C 101.095 358.069, 96.268 364.925, 88.186 370.422 C 77.729 377.535, 70.192 380.192, 58.840 380.768 L 49.180 381.259 38.849 376.429 C 27.510 371.129, 23.426 370.549, 19.256 373.649 C 6.046 383.468, 40.700 401.788, 68.429 399.643 C 85.829 398.298, 101.595 391.853, 112.748 381.527 C 121.584 373.346, 125.217 367.915, 128.380 358.155 C 132.160 346.490, 132.332 344.731, 130.318 338.325 C 126.843 327.273, 116.417 318.356, 90.250 304.056 C 82.963 300.074, 77 296.419, 77 295.933 C 77 292.913, 90.287 290.086, 105 289.976 C 114.793 289.903, 121.924 288.741, 122.971 287.047 C 123.371 286.400, 123.474 284.701, 123.201 283.272 C 122.775 281.044, 122.975 280.778, 124.602 281.411 C 130.943 283.878, 136.949 284.154, 150.436 282.597 C 158.050 281.719, 164.622 281, 165.040 281 C 166.452 281, 162.790 294.349, 153.793 322 C 137.952 370.688, 134.578 387.903, 139.562 394.604 C 146.820 404.364, 155.626 403.161, 159.242 391.916 C 168.097 364.379, 196.495 280.225, 197.262 279.250 C 198.346 277.872, 202 277.527, 202 278.804 C 202 279.245, 200.425 284.284, 198.500 290.001 C 191.783 309.945, 190.618 320.230, 194.038 329.373 C 197.134 337.648, 204.066 342, 214.149 342 C 216.817 342, 219 342.262, 219 342.583 C 219 343.804, 187.601 405.329, 178.027 422.869 C 172.512 432.972, 168 441.859, 168 442.619 C 168 445.879, 181.508 442.822, 190.569 437.513 C 197.176 433.641, 210.380 420.642, 217.885 410.621 C 229.712 394.829, 236.172 383.846, 258.243 342 C 280.592 299.628, 284.540 291.281, 288.286 278.483 C 289.629 273.891, 289.595 272.946, 287.876 267.348 C 286.477 262.791, 284.978 260.309, 281.996 257.616 C 277.327 253.397, 276.074 253.200, 273.310 256.250 M 312.670 260.250 C 311.328 261.488, 309.486 264.885, 308.578 267.800 C 307.670 270.715, 301.051 285.565, 293.869 300.800 C 279.494 331.291, 274.139 343.481, 268.532 358.469 C 262.398 374.867, 262.069 373.474, 274.142 382.206 C 290.900 394.326, 292.078 395, 296.507 395 C 302.113 395, 321.296 390.173, 341.500 383.677 C 365.130 376.081, 363.622 376.277, 363.185 380.858 C 362.890 383.952, 363.672 386.035, 367.487 392.320 C 372.110 399.934, 372.186 400, 376.350 400 C 383.764 400, 409.139 395.036, 419.574 391.544 C 425.137 389.683, 439.772 384.270, 452.095 379.515 C 477.925 369.550, 481.171 367.171, 476 362 C 472.144 358.144, 461.702 359.527, 426.191 368.599 C 414.471 371.593, 402.213 374.322, 398.953 374.663 L 393.024 375.282 394.601 369.891 C 396.550 363.229, 405.730 338.471, 407.607 334.813 C 408.365 333.336, 409.356 331.898, 409.808 331.619 C 410.260 331.339, 416.226 330.179, 423.065 329.041 C 446.122 325.204, 454.593 322.859, 455.479 320.067 C 456.217 317.742, 454.763 313.981, 452.253 311.720 C 448.333 308.190, 444.477 307.919, 429.780 310.138 C 422.146 311.291, 415.659 311.992, 415.364 311.697 C 415.068 311.402, 416.785 305.174, 419.178 297.857 L 423.530 284.554 440.539 280.901 C 462.570 276.170, 487.097 269.462, 488.060 267.903 C 489.354 265.809, 487.481 262.577, 483.915 260.752 C 479.730 258.609, 475.117 258.570, 456.222 260.517 C 427.646 263.460, 401.614 268.940, 397.846 272.804 C 394.927 275.798, 387.476 297.158, 375.514 336.828 C 371.479 350.208, 368.014 361.319, 367.814 361.519 C 366.774 362.559, 295.189 373.528, 294.433 372.763 C 294.290 372.619, 297.765 366.200, 302.156 358.500 C 318.910 329.121, 330.854 303.030, 336.489 283.500 C 337.917 278.550, 338.844 273.531, 338.548 272.348 C 337.421 267.833, 322.957 258.079, 317.306 258.022 C 316.099 258.010, 314.013 259.012, 312.670 260.250" stroke="none" fill="#0cc3dc" fill-rule="evenodd"/><path d="M 34.571 87.571 C 33.177 88.966, 33 96.054, 33 150.500 C 33 204.946, 33.177 212.034, 34.571 213.429 C 35.787 214.645, 38.372 215, 46 215 C 53.628 215, 56.213 214.645, 57.429 213.429 C 58.801 212.056, 59 207.121, 59 174.429 C 59 153.843, 59.337 137.009, 59.750 137.020 C 60.163 137.031, 67.184 148.966, 75.354 163.541 C 83.524 178.116, 91.126 190.532, 92.248 191.133 C 95.747 193.005, 101.889 191.500, 105.658 187.847 C 107.595 185.969, 114.737 174.241, 122.156 160.753 C 129.352 147.673, 135.635 136.726, 136.119 136.426 C 136.621 136.116, 137 152.233, 137 173.870 C 137 207.070, 137.198 212.055, 138.571 213.429 C 140.832 215.689, 158.168 215.689, 160.429 213.429 C 161.823 212.034, 162 204.946, 162 150.500 C 162 96.054, 161.823 88.966, 160.429 87.571 C 159.239 86.382, 156.750 86.004, 150.179 86.015 C 145.405 86.024, 140.909 86.405, 140.187 86.863 C 139.465 87.321, 129.945 104.288, 119.032 124.566 C 108.119 144.845, 98.810 161.552, 98.345 161.693 C 97.880 161.835, 88.725 145.891, 78 126.263 C 67.275 106.636, 57.508 89.547, 56.295 88.288 C 54.320 86.238, 53.159 86, 45.117 86 C 38.292 86, 35.767 86.376, 34.571 87.571 M 208.129 123.526 C 197.840 126.390, 191.306 130.788, 186.100 138.355 C 181.165 145.527, 180 151.491, 180 169.576 C 180 189.597, 181.610 196.125, 188.412 203.691 C 197.663 213.981, 208.918 217.463, 230.500 216.712 C 249.546 216.050, 255.005 214.157, 264.146 205.042 C 273.400 195.815, 275 190.572, 275 169.484 C 275 151.739, 273.507 145.183, 267.649 137.203 C 263.473 131.514, 258.413 127.762, 250.878 124.768 C 246.328 122.959, 243.037 122.584, 229.500 122.331 C 217.595 122.108, 212.125 122.414, 208.129 123.526 M 404.845 124.507 C 391.815 128.791, 383.652 137.828, 380.441 151.522 C 378.076 161.607, 378.835 186.324, 381.737 193.721 C 387.886 209.393, 402.350 217, 426 217 C 437.049 217, 448.470 214.828, 455.192 211.448 C 460.942 208.557, 467.860 200.991, 470.012 195.238 C 472.406 188.839, 472.420 188.563, 470.429 186.571 C 469.222 185.365, 466.667 185, 459.429 185 C 451.333 185, 449.717 185.283, 448 187 C 446.900 188.100, 446 189.457, 446 190.015 C 446 190.573, 444.538 191.921, 442.750 193.011 C 439.924 194.734, 437.693 194.993, 425.650 194.996 L 411.800 195 408.400 191.600 C 405.422 188.622, 405 187.567, 405 183.100 L 405 178 437.429 178 C 466.620 178, 470.027 177.830, 471.558 176.300 C 473.030 174.827, 473.186 173.049, 472.721 163.050 C 471.730 141.721, 465.176 131.136, 449.048 124.820 C 444.385 122.994, 441.027 122.595, 428 122.319 C 413.639 122.014, 411.938 122.175, 404.845 124.507 M 282.250 123.662 C 281.563 123.940, 281 125.033, 281 126.091 C 281 128.889, 311.619 205.656, 314.156 209.218 C 317.028 213.252, 321.624 215, 329.357 215 C 334.028 215, 336.335 214.523, 337.820 213.250 C 339.621 211.705, 374 128.092, 374 125.255 C 374 124.682, 373.288 123.941, 372.418 123.607 C 370.057 122.701, 351.700 122.904, 350.205 123.852 C 349.492 124.304, 344.317 137.910, 338.705 154.087 C 331.940 173.583, 328.033 183.500, 327.114 183.500 C 326.195 183.500, 322.311 173.629, 315.584 154.195 C 310.006 138.078, 304.779 124.472, 303.971 123.961 C 302.460 123.005, 284.490 122.758, 282.250 123.662 M 411.299 144.960 C 407.534 147.255, 405 151.677, 405 155.950 L 405 159 426 159 L 447 159 446.993 155.250 C 446.986 151.042, 444.284 146.281, 440.810 144.353 C 439.302 143.516, 434.336 143.060, 426.500 143.039 C 416.322 143.012, 414.014 143.304, 411.299 144.960 M 211.849 145.520 C 210.391 146.312, 208.212 148.996, 207.007 151.485 C 204.997 155.637, 204.845 157.228, 205.158 170.802 C 205.536 187.160, 206.238 189.345, 212.304 193.044 C 214.972 194.671, 217.364 194.993, 226.782 194.996 C 239.861 195.001, 243.967 193.743, 246.974 188.810 C 248.773 185.860, 248.993 183.783, 248.996 169.700 C 249 152.571, 248.396 150.030, 243.385 146.088 C 240.992 144.206, 239.436 144.004, 227.615 144.040 C 218.157 144.069, 213.761 144.482, 211.849 145.520" stroke="none" fill="#fc64c4" fill-rule="evenodd"/></svg>